HIERARCHY
ROOT Hips
{
  OFFSET 7.333 -26.027 -164.856
  CHANNELS 6 Xposition Yposition Zposition Zrotation Xrotation Yrotation
  JOINT LeftUpLeg
  {
    OFFSET 10.092 0.000 0.000
    CHANNELS 3 Zrotation Xrotation Yrotation
    JOINT LeftLeg
    {
      OFFSET 0.000 -38.160 -0.000
    CHANNELS 3 Zrotation Xrotation Yrotation
      JOINT LeftFoot
      {
        OFFSET -0.000 -24.040 0.000
    CHANNELS 3 Zrotation Xrotation Yrotation
        End Site
        {
          OFFSET -0.000 0.000 12.945
        }
      }
    }
  }
  JOINT RightUpLeg
  {
    OFFSET -10.092 -0.000 0.000
    CHANNELS 3 Zrotation Xrotation Yrotation
    JOINT RightLeg
    {
      OFFSET 0.000 -33.046 0.000
    CHANNELS 3 Zrotation Xrotation Yrotation
      JOINT RightFoot
      {
        OFFSET 0.000 -22.031 -0.000
    CHANNELS 3 Zrotation Xrotation Yrotation
        End Site
        {
          OFFSET 0.000 -0.000 11.863
        }
      }
    }
  }
  JOINT Spine
  {
    OFFSET -0.000 16.511 0.000
    CHANNELS 3 Zrotation Xrotation Yrotation
    JOINT LeftShoulder
    {
      OFFSET 0 16.511 0
    CHANNELS 3 Zrotation Xrotation Yrotation
      JOINT LeftArm
      {
        OFFSET 16.337 0.000 0.000
    CHANNELS 3 Zrotation Xrotation Yrotation
        JOINT LeftForeArm
        {
          OFFSET 0.000 -24.030 0.000
    CHANNELS 3 Zrotation Xrotation Yrotation
          JOINT LeftHand
          {
            OFFSET 0.000 -17.629 -0.000
    CHANNELS 3 Zrotation Xrotation Yrotation
            End Site
            {
              OFFSET 0.000 -11.753 -0.000
            }
          }
        }
      }
    }
    JOINT RightShoulder
    {
      OFFSET 0 16.511 0
    CHANNELS 3 Zrotation Xrotation Yrotation
      JOINT RightArm
      {
        OFFSET -16.337 0.000 0.000
    CHANNELS 3 Zrotation Xrotation Yrotation
        JOINT RightForeArm
        {
          OFFSET -0.000 -19.534 0.000
    CHANNELS 3 Zrotation Xrotation Yrotation
          JOINT RightHand
          {
            OFFSET 0.000 -19.514 -0.000
    CHANNELS 3 Zrotation Xrotation Yrotation
            End Site
            {
              OFFSET 0.000 -13.010 -0.000
            }
          }
        }
      }
    }
    JOINT Neck
    {
      OFFSET -0.000 16.511 0.000
    CHANNELS 3 Zrotation Xrotation Yrotation
      JOINT Head
      {
        OFFSET -0.000 12.493 -0.000
    CHANNELS 3 Zrotation Xrotation Yrotation
        End Site
        {
          OFFSET -0.000 8.328 -0.000
        }
      }
    }
  }
}
MOTION
Frames: 9
Frame Time: 0.0333333
0 0 0 3.238093e-01 -2.028980e-01 -3.028520e+00 -1.784590e+00 1.064282e+01 3.297090e-01 1.399080e+00 -1.347940e+01 -8.215980e-02 0 0 0 -1.956567e+00 1.444809e+01 4.885983e-01 5.676641e+00 -2.158601e+01 1.241520e+00 0 1.443546e-10 0 8.530066e-09 9.729617e-09 7.000000e-06 0 0 0 1.107790e+01 -1.218523e+00 2.124960e+01 -1.511755e+01 3.075288e-03 5.211971e+00 0 1.554289e-07 -2.095566e-07 0 0 0 -1.705540e+01 -6.029767e+01 7.190510e+01 -8.985140e+01 -8.125100e+00 -5.729809e+01 NaN NaN NaN 7.028545e-01 -1.296378e+00 NaN 0 0 1.655513e-07 
0 0 0 -2.033711e-01 1.255650e+00 -2.534110e+00 -9.241649e-01 8.404850e+00 1.354400e-01 9.543222e-01 -1.203810e+01 8.023060e-03 0 0 0 -1.021591e+00 1.173130e+01 2.081259e-01 5.330710e+00 -2.169578e+01 1.061686e+00 0 1.795104e-07 0 -1.052627e-07 1.511806e-08 -2.000000e-06 0 0 0 1.138460e+01 -2.275056e+00 1.634890e+01 -1.508942e+01 8.558500e-01 4.701782e+00 0 NaN NaN 0 0 0 -2.151910e+01 -6.017966e+01 6.712403e+01 -1.111950e+02 -1.045530e+01 -1.549645e+02 -7.763896e-08 -4.060290e-09 NaN 3.721322e+00 -1.158018e+00 1.565632e-02 0 0 NaN 
0 0 0 -4.655460e+00 1.694920e+00 2.204550e+00 5.216238e+00 7.049280e+00 -6.436322e-01 -1.176643e+00 -1.098010e+01 7.605696e-01 0 0 0 5.047090e+00 1.188330e+01 -1.041870e+00 3.705325e+00 -1.942090e+01 1.039529e+00 0 NaN 0 -1.883203e-07 1.595584e-08 -1.500000e-05 0 0 0 1.311510e+01 -6.201952e+00 -1.371480e+00 -1.221198e+01 1.365761e+00 5.189790e+00 0 NaN NaN 0 0 0 -3.012380e+01 -4.618718e+01 5.393990e+01 -1.329220e+02 -5.268926e+00 -1.699261e+02 -7.108650e-08 -3.061810e-08 -3.524832e-08 1.747340e+00 -3.386229e+00 3.380212e-01 0 0 NaN 
0 0 0 -6.182371e+00 2.738620e+00 4.238271e+00 8.784390e+00 5.128700e+00 -7.914230e-01 -3.496000e+00 -1.142640e+01 1.043460e+00 0 0 0 8.885330e+00 1.089200e+01 -1.692050e+00 8.588540e-01 -2.071380e+01 1.004525e+00 0 NaN 0 -3.233517e-07 3.308722e-24 -7.804365e-06 0 0 0 1.189010e+01 -8.656210e+00 -1.196940e+01 -1.069190e+01 3.665910e-01 5.298320e+00 0 2.843670e-09 7.177007e-12 0 0 0 -3.219770e+01 -3.635910e+01 4.716410e+01 -1.431130e+02 -2.408340e+00 -1.575489e+02 NaN -1.278361e-08 -9.713852e-08 9.863210e-01 -5.391370e+00 NaN 0 0 1.327771e-07 
0 0 0 -6.888429e+00 3.243010e+00 3.027460e+00 9.467940e+00 4.457600e+00 -7.425880e-01 -3.466430e+00 -1.091241e+01 1.134530e+00 0 0 0 9.788610e+00 1.090304e+01 -1.871170e+00 6.626490e-01 -2.144000e+01 9.474528e-01 0 1.481882e-08 0 -2.904673e-07 1.189117e-08 -1.202017e-05 0 0 0 1.199500e+01 -7.614510e+00 -7.547820e+00 -1.087460e+01 -1.031340e-01 5.314612e+00 0 -9.017793e-10 9.636819e-10 0 0 0 -3.207630e+01 -3.699170e+01 4.776530e+01 -1.409461e+02 -2.104080e+00 -6.699609e+01 -3.129348e-08 -1.368223e-07 NaN 6.198807e-01 -6.061110e+00 3.515300e-02 0 0 NaN 
0 0 0 -2.074240e+00 1.314610e+00 -1.227970e+00 2.953150e+00 7.786230e+00 -4.004290e-01 -1.555550e+00 -1.189518e+01 2.826370e-01 0 0 0 3.223400e+00 1.361720e+01 -7.596470e-01 2.360230e+00 -2.060093e+01 9.711055e-01 0 4.408427e-09 0 9.786308e-08 2.015971e-08 -3.097101e-05 0 0 0 1.067176e+01 -3.524770e+00 1.124940e+01 -1.250620e+01 -7.053330e-01 5.443641e+00 0 -1.161863e-08 2.856154e-08 0 0 0 -2.526200e+01 -4.726480e+01 5.996120e+01 -1.279649e+02 -8.704354e+00 -1.358774e+01 7.720624e-09 NaN NaN 4.329549e-01 -2.580940e+00 4.026718e-02 0 0 NaN 
0 0 0 -6.047050e-01 8.400820e-01 -2.962460e+00 -7.247200e-02 8.086650e+00 1.019900e-02 3.690710e-01 -1.079840e+01 5.569900e-02 0 0 0 1.205200e-01 1.260710e+01 -2.629900e-02 4.255550e+00 -2.124049e+01 7.901543e-01 0 2.157388e-07 0 -3.019481e-07 NaN -2.700000e-05 0 0 0 1.076340e+01 -2.381100e+00 1.668600e+01 -1.312560e+01 -1.410180e+00 5.426310e+00 0 -1.052637e-08 8.623326e-08 0 0 0 -2.215140e+01 -5.646520e+01 6.585110e+01 -1.058257e+02 -1.052270e+01 -8.690260e+00 -1.003272e-08 NaN -2.857440e-07 3.211164e-01 -1.773300e+00 2.122143e-02 0 0 1.211656e-08 
0 0 0 -3.734000e-03 2.606647e-01 -3.424551e+00 -1.283930e+00 8.951310e+00 1.998100e-01 1.121920e+00 -1.074170e+01 -2.728600e-02 0 0 0 -1.489720e+00 1.336844e+01 3.445210e-01 5.629320e+00 -2.142080e+01 6.185149e-01 0 NaN 0 -2.068891e-07 NaN -3.189565e-05 0 0 0 1.110620e+01 -2.151159e+00 1.730193e+01 -1.363520e+01 -1.356111e+00 5.430907e+00 0 -1.301995e-08 1.107188e-07 0 0 0 -1.798380e+01 -5.925050e+01 7.082340e+01 -8.179596e+01 -8.214072e+00 -8.127245e+00 -3.684282e-07 -1.224035e-08 NaN 4.288320e-01 -1.341330e+00 1.083353e-02 0 0 8.274555e-09 
0 0 0 2.086400e-01 -3.306900e-01 -2.458270e+00 -1.388140e+00 8.950808e+00 2.159800e-01 8.287827e-01 -9.808089e+00 -9.256960e-02 0 0 0 -1.478640e+00 1.263564e+01 3.235590e-01 4.999240e+00 -2.153530e+01 5.447349e-01 0 NaN 0 NaN 2.915929e-09 5.700000e-05 0 0 0 1.082230e+01 -2.901130e+00 1.403915e+01 -1.354003e+01 -8.512252e-01 5.561562e+00 0 -7.686339e-09 NaN 0 0 0 -2.244850e+01 -5.910546e+01 6.596270e+01 -5.431556e+01 -1.029020e+01 -1.493551e+01 NaN 2.195745e-09 NaN 5.402264e-01 -1.384799e+00 1.514713e-02 0 0 1.646732e-08 
